<svg width="32" height="32" viewBox="0 0 32 32" fill="none" xmlns="http://www.w3.org/2000/svg">
<mask id="mask0_679:832" style="mask-type:alpha" maskUnits="userSpaceOnUse" x="0" y="0" width="32" height="32">
<path d="M32 16C32 7.16344 24.8366 0 16 0C7.16344 0 0 7.16344 0 16C0 24.8366 7.16344 32 16 32C24.8366 32 32 24.8366 32 16Z" fill="white"/>
</mask>
<g mask="url(#mask0_679:832)">
<path d="M32 0H0V32H32V0Z" fill="#32D5D1"/>
<path d="M43.5452 25.651L29.2298 4.42767C27.2533 1.49733 23.2755 0.724125 20.3452 2.70066L-0.878199 17.016C-3.80854 18.9925 -4.58174 22.9703 -2.6052 25.9007L11.7101 47.124C13.6867 50.0544 17.6645 50.8276 20.5948 48.851L41.8182 34.5357C44.7485 32.5592 45.5217 28.5814 43.5452 25.651Z" fill="#445FFB"/>
<path d="M11.3015 19.9653C11.2091 20.8445 11.5862 21.7367 12.3498 22.4455C13.1133 23.1543 14.2009 23.6218 15.3732 23.745C16.5455 23.8682 17.7064 23.6371 18.6007 23.1025C19.495 22.5679 20.0493 21.7737 20.1417 20.8945" fill="white"/>
<path d="M13.1848 14.7998C13.2361 14.3115 12.9808 13.8845 12.6147 13.8461C12.2485 13.8076 11.9101 14.1722 11.8587 14.6604C11.8074 15.1486 12.0627 15.5756 12.4288 15.6141C12.795 15.6526 13.1335 15.288 13.1848 14.7998Z" fill="white"/>
<path d="M20.2568 15.5427C20.3081 15.0544 20.0529 14.6275 19.6867 14.589C19.3205 14.5505 18.9821 14.9151 18.9308 15.4033C18.8795 15.8915 19.1347 16.3185 19.5009 16.357C19.867 16.3955 20.2055 16.0309 20.2568 15.5427Z" fill="white"/>
</g>
</svg>
